<mxfile host="app.diagrams.net" modified="2021-08-27T03:25:27.405Z" agent="5.0 (Windows NT 10.0; Win64; x64) AppleWebKit/537.36 (KHTML, like Gecko) Chrome/92.0.4515.159 Safari/537.36 Edg/92.0.902.78" etag="KmdZU6jsEC4ug8E1E7Ag" version="14.9.8" type="github">
  <diagram id="9FuVxkwJ3gRoj48DPX5Q" name="Page-1">
    <mxGraphModel dx="1038" dy="583" grid="1" gridSize="10" guides="1" tooltips="1" connect="1" arrows="1" fold="1" page="1" pageScale="1" pageWidth="827" pageHeight="1169" math="0" shadow="0">
      <root>
        <mxCell id="0" />
        <mxCell id="1" parent="0" />
        <mxCell id="g9Ys2xgaOEM5gX-QRVGG-40" style="edgeStyle=orthogonalEdgeStyle;curved=1;rounded=0;orthogonalLoop=1;jettySize=auto;html=1;dashed=1;" edge="1" parent="1" source="g9Ys2xgaOEM5gX-QRVGG-1" target="g9Ys2xgaOEM5gX-QRVGG-33">
          <mxGeometry relative="1" as="geometry" />
        </mxCell>
        <mxCell id="g9Ys2xgaOEM5gX-QRVGG-1" value="&lt;span style=&quot;font-size: 23px&quot;&gt;commander&lt;/span&gt;" style="html=1;shadow=0;dashed=0;shape=mxgraph.bootstrap.rrect;rSize=5;strokeWidth=1;whiteSpace=wrap;align=center;verticalAlign=middle;spacingLeft=0;fontStyle=1;fontSize=14;spacing=5;fillColor=#dae8fc;strokeColor=#6c8ebf;" vertex="1" parent="1">
          <mxGeometry x="345" y="320" width="170" height="40" as="geometry" />
        </mxCell>
        <mxCell id="g9Ys2xgaOEM5gX-QRVGG-2" value="&lt;span style=&quot;font-size: 23px&quot;&gt;gate&lt;/span&gt;" style="html=1;shadow=0;dashed=0;shape=mxgraph.bootstrap.rrect;rSize=5;strokeWidth=1;whiteSpace=wrap;align=center;verticalAlign=middle;spacingLeft=0;fontStyle=1;fontSize=14;spacing=5;fillColor=#b0e3e6;strokeColor=#0e8088;" vertex="1" parent="1">
          <mxGeometry x="60" y="540" width="470" height="40" as="geometry" />
        </mxCell>
        <mxCell id="g9Ys2xgaOEM5gX-QRVGG-5" style="edgeStyle=none;rounded=0;orthogonalLoop=1;jettySize=auto;html=1;" edge="1" parent="1" source="g9Ys2xgaOEM5gX-QRVGG-7">
          <mxGeometry relative="1" as="geometry">
            <mxPoint x="290" y="440" as="targetPoint" />
          </mxGeometry>
        </mxCell>
        <mxCell id="g9Ys2xgaOEM5gX-QRVGG-6" style="edgeStyle=none;rounded=0;orthogonalLoop=1;jettySize=auto;html=1;startArrow=none;startFill=0;endArrow=classic;endFill=1;strokeColor=#000000;strokeWidth=1;" edge="1" parent="1" source="g9Ys2xgaOEM5gX-QRVGG-7" target="g9Ys2xgaOEM5gX-QRVGG-2">
          <mxGeometry relative="1" as="geometry" />
        </mxCell>
        <mxCell id="g9Ys2xgaOEM5gX-QRVGG-28" style="rounded=0;orthogonalLoop=1;jettySize=auto;html=1;entryX=0.5;entryY=1;entryDx=0;entryDy=0;entryPerimeter=0;" edge="1" parent="1" source="g9Ys2xgaOEM5gX-QRVGG-7" target="g9Ys2xgaOEM5gX-QRVGG-27">
          <mxGeometry relative="1" as="geometry" />
        </mxCell>
        <mxCell id="g9Ys2xgaOEM5gX-QRVGG-30" style="edgeStyle=none;rounded=0;orthogonalLoop=1;jettySize=auto;html=1;" edge="1" parent="1" source="g9Ys2xgaOEM5gX-QRVGG-7" target="g9Ys2xgaOEM5gX-QRVGG-29">
          <mxGeometry relative="1" as="geometry" />
        </mxCell>
        <mxCell id="g9Ys2xgaOEM5gX-QRVGG-42" style="edgeStyle=orthogonalEdgeStyle;curved=1;rounded=0;orthogonalLoop=1;jettySize=auto;html=1;entryX=0.005;entryY=0.63;entryDx=0;entryDy=0;entryPerimeter=0;dashed=1;" edge="1" parent="1" source="g9Ys2xgaOEM5gX-QRVGG-7" target="g9Ys2xgaOEM5gX-QRVGG-31">
          <mxGeometry relative="1" as="geometry" />
        </mxCell>
        <mxCell id="g9Ys2xgaOEM5gX-QRVGG-7" value="&lt;span style=&quot;font-size: 23px&quot;&gt;game&lt;/span&gt;" style="html=1;shadow=0;dashed=0;shape=mxgraph.bootstrap.rrect;rSize=5;strokeWidth=1;whiteSpace=wrap;align=center;verticalAlign=middle;spacingLeft=0;fontStyle=1;fontSize=14;spacing=5;fillColor=#d5e8d4;strokeColor=#82b366;" vertex="1" parent="1">
          <mxGeometry x="60" y="420" width="170" height="40" as="geometry" />
        </mxCell>
        <mxCell id="g9Ys2xgaOEM5gX-QRVGG-8" style="edgeStyle=none;rounded=0;orthogonalLoop=1;jettySize=auto;html=1;" edge="1" parent="1" source="g9Ys2xgaOEM5gX-QRVGG-9" target="g9Ys2xgaOEM5gX-QRVGG-12">
          <mxGeometry relative="1" as="geometry" />
        </mxCell>
        <mxCell id="g9Ys2xgaOEM5gX-QRVGG-41" style="edgeStyle=orthogonalEdgeStyle;curved=1;rounded=0;orthogonalLoop=1;jettySize=auto;html=1;entryX=0.995;entryY=0.63;entryDx=0;entryDy=0;entryPerimeter=0;dashed=1;" edge="1" parent="1" source="g9Ys2xgaOEM5gX-QRVGG-9" target="g9Ys2xgaOEM5gX-QRVGG-31">
          <mxGeometry relative="1" as="geometry" />
        </mxCell>
        <mxCell id="g9Ys2xgaOEM5gX-QRVGG-9" value="&lt;span style=&quot;font-size: 23px&quot;&gt;battlemgr&lt;/span&gt;" style="html=1;shadow=0;dashed=0;shape=mxgraph.bootstrap.rrect;rSize=5;strokeWidth=1;whiteSpace=wrap;align=center;verticalAlign=middle;spacingLeft=0;fontStyle=1;fontSize=14;spacing=5;fillColor=#6d8764;strokeColor=#3A5431;fontColor=#ffffff;" vertex="1" parent="1">
          <mxGeometry x="657" y="380" width="170" height="40" as="geometry" />
        </mxCell>
        <mxCell id="g9Ys2xgaOEM5gX-QRVGG-10" style="edgeStyle=none;rounded=0;orthogonalLoop=1;jettySize=auto;html=1;startArrow=classic;startFill=1;endArrow=none;endFill=0;strokeColor=#000000;strokeWidth=1;" edge="1" parent="1" source="g9Ys2xgaOEM5gX-QRVGG-12" target="g9Ys2xgaOEM5gX-QRVGG-2">
          <mxGeometry relative="1" as="geometry" />
        </mxCell>
        <mxCell id="g9Ys2xgaOEM5gX-QRVGG-11" style="edgeStyle=none;rounded=0;orthogonalLoop=1;jettySize=auto;html=1;startArrow=classic;startFill=1;endArrow=none;endFill=0;strokeColor=#000000;strokeWidth=1;" edge="1" parent="1" source="g9Ys2xgaOEM5gX-QRVGG-12">
          <mxGeometry relative="1" as="geometry">
            <mxPoint x="426" y="360" as="targetPoint" />
          </mxGeometry>
        </mxCell>
        <mxCell id="g9Ys2xgaOEM5gX-QRVGG-12" value="&lt;span style=&quot;font-size: 23px&quot;&gt;world(router)&lt;/span&gt;" style="html=1;shadow=0;dashed=0;shape=mxgraph.bootstrap.rrect;rSize=5;strokeWidth=1;whiteSpace=wrap;align=center;verticalAlign=middle;spacingLeft=0;fontStyle=1;fontSize=14;spacing=5;fillColor=#647687;strokeColor=#314354;fontColor=#ffffff;" vertex="1" parent="1">
          <mxGeometry x="285" y="420" width="280" height="40" as="geometry" />
        </mxCell>
        <mxCell id="g9Ys2xgaOEM5gX-QRVGG-13" style="edgeStyle=none;orthogonalLoop=1;jettySize=auto;html=1;entryX=0.502;entryY=1.021;entryDx=0;entryDy=0;entryPerimeter=0;rounded=0;" edge="1" parent="1" source="g9Ys2xgaOEM5gX-QRVGG-15" target="g9Ys2xgaOEM5gX-QRVGG-2">
          <mxGeometry relative="1" as="geometry" />
        </mxCell>
        <mxCell id="g9Ys2xgaOEM5gX-QRVGG-14" style="edgeStyle=none;rounded=0;orthogonalLoop=1;jettySize=auto;html=1;strokeColor=#67AB9F;" edge="1" parent="1" source="g9Ys2xgaOEM5gX-QRVGG-15" target="g9Ys2xgaOEM5gX-QRVGG-17">
          <mxGeometry relative="1" as="geometry" />
        </mxCell>
        <mxCell id="g9Ys2xgaOEM5gX-QRVGG-15" value="&lt;span style=&quot;font-size: 23px&quot;&gt;clients&lt;/span&gt;" style="html=1;shadow=0;dashed=0;shape=mxgraph.bootstrap.rrect;rSize=5;strokeWidth=1;whiteSpace=wrap;align=center;verticalAlign=middle;spacingLeft=0;fontStyle=1;fontSize=14;spacing=5;fillColor=#fff2cc;strokeColor=#d6b656;gradientColor=#ffd966;" vertex="1" parent="1">
          <mxGeometry x="340" y="680" width="170" height="40" as="geometry" />
        </mxCell>
        <mxCell id="g9Ys2xgaOEM5gX-QRVGG-16" style="edgeStyle=none;rounded=0;orthogonalLoop=1;jettySize=auto;html=1;" edge="1" parent="1" source="g9Ys2xgaOEM5gX-QRVGG-17" target="g9Ys2xgaOEM5gX-QRVGG-12">
          <mxGeometry relative="1" as="geometry" />
        </mxCell>
        <mxCell id="g9Ys2xgaOEM5gX-QRVGG-17" value="&lt;span style=&quot;font-size: 23px&quot;&gt;battle&lt;/span&gt;" style="html=1;shadow=0;dashed=0;shape=mxgraph.bootstrap.rrect;rSize=5;strokeWidth=1;whiteSpace=wrap;align=center;verticalAlign=middle;spacingLeft=0;fontStyle=1;fontSize=14;spacing=5;fillColor=#bac8d3;strokeColor=#23445d;" vertex="1" parent="1">
          <mxGeometry x="590" y="540" width="240" height="40" as="geometry" />
        </mxCell>
        <mxCell id="g9Ys2xgaOEM5gX-QRVGG-18" style="edgeStyle=none;rounded=0;orthogonalLoop=1;jettySize=auto;html=1;" edge="1" parent="1" source="g9Ys2xgaOEM5gX-QRVGG-19" target="g9Ys2xgaOEM5gX-QRVGG-12">
          <mxGeometry relative="1" as="geometry" />
        </mxCell>
        <mxCell id="g9Ys2xgaOEM5gX-QRVGG-19" value="&lt;span style=&quot;font-size: 23px&quot;&gt;centerstub&lt;/span&gt;" style="html=1;shadow=0;dashed=0;shape=mxgraph.bootstrap.rrect;rSize=5;strokeWidth=1;whiteSpace=wrap;align=center;verticalAlign=middle;spacingLeft=0;fontStyle=1;fontSize=14;spacing=5;fillColor=#e1d5e7;strokeColor=#9673a6;" vertex="1" parent="1">
          <mxGeometry x="662" y="460" width="165" height="40" as="geometry" />
        </mxCell>
        <mxCell id="g9Ys2xgaOEM5gX-QRVGG-20" value="&lt;font style=&quot;font-size: 15px&quot;&gt;kcp&lt;/font&gt;" style="text;html=1;resizable=0;autosize=1;align=center;verticalAlign=middle;points=[];fillColor=none;strokeColor=none;rounded=0;" vertex="1" parent="1">
          <mxGeometry x="560" y="630" width="40" height="20" as="geometry" />
        </mxCell>
        <mxCell id="g9Ys2xgaOEM5gX-QRVGG-21" value="&lt;font style=&quot;font-size: 15px&quot;&gt;tcp&lt;/font&gt;" style="text;html=1;resizable=0;autosize=1;align=center;verticalAlign=middle;points=[];fillColor=none;strokeColor=none;rounded=0;" vertex="1" parent="1">
          <mxGeometry x="305" y="630" width="40" height="20" as="geometry" />
        </mxCell>
        <mxCell id="g9Ys2xgaOEM5gX-QRVGG-24" value="所有的节点都需要连接到ETCD, 图上只连了三条。&lt;br&gt;&lt;br&gt;每个节点都可以使用mongo共和redis服务。" style="text;whiteSpace=wrap;html=1;" vertex="1" parent="1">
          <mxGeometry x="670" y="610" width="160" height="90" as="geometry" />
        </mxCell>
        <mxCell id="g9Ys2xgaOEM5gX-QRVGG-27" value="MongoDB" style="strokeWidth=2;html=1;shape=mxgraph.flowchart.database;whiteSpace=wrap;" vertex="1" parent="1">
          <mxGeometry x="10" y="260" width="100" height="90" as="geometry" />
        </mxCell>
        <mxCell id="g9Ys2xgaOEM5gX-QRVGG-29" value="Redis" style="aspect=fixed;html=1;points=[];align=center;image;fontSize=12;image=img/lib/mscae/Cache_Redis_Product.svg;" vertex="1" parent="1">
          <mxGeometry x="150" y="250" width="97.61" height="82" as="geometry" />
        </mxCell>
        <mxCell id="g9Ys2xgaOEM5gX-QRVGG-31" value="" style="html=1;dashed=0;whitespace=wrap;fillColor=#2875E2;strokeColor=#ffffff;points=[[0.005,0.63,0],[0.1,0.2,0],[0.9,0.2,0],[0.5,0,0],[0.995,0.63,0],[0.72,0.99,0],[0.5,1,0],[0.28,0.99,0]];shape=mxgraph.kubernetes.icon;prIcon=etcd" vertex="1" parent="1">
          <mxGeometry x="380" y="172" width="110" height="78" as="geometry" />
        </mxCell>
        <mxCell id="g9Ys2xgaOEM5gX-QRVGG-33" value="ETCD" style="text;html=1;resizable=0;autosize=1;align=center;verticalAlign=middle;points=[];fillColor=none;strokeColor=none;rounded=0;" vertex="1" parent="1">
          <mxGeometry x="414" y="250" width="50" height="20" as="geometry" />
        </mxCell>
      </root>
    </mxGraphModel>
  </diagram>
</mxfile>
